<?xml version="1.0" standalone="no"?>
<!DOCTYPE svg PUBLIC "-//W3C//DTD SVG 20010904//EN"
 "http://www.w3.org/TR/2001/REC-SVG-20010904/DTD/svg10.dtd">
<svg version="1.0" xmlns="http://www.w3.org/2000/svg"
 width="512.000000pt" height="512.000000pt" viewBox="0 0 512.000000 512.000000"
 preserveAspectRatio="xMidYMid meet">
<metadata>
Created by potrace 1.14, written by Peter Selinger 2001-2017
</metadata>
<g transform="translate(0.000000,512.000000) scale(0.100000,-0.100000)"
fill="#000000" stroke="none">
<path d="M2582 4768 c0 -24 -1 -47 -2 -53 -1 -5 -2 -40 -2 -77 -1 -47 -4 -65
-12 -61 -6 4 -5 -1 3 -10 7 -9 9 -17 4 -17 -5 0 -8 -15 -8 -32 1 -18 -2 -41
-7 -50 -6 -13 -5 -18 4 -18 10 0 10 -2 1 -8 -6 -4 -14 -41 -17 -82 -8 -125
-17 -184 -28 -197 -7 -9 -7 -13 1 -13 7 0 9 -5 4 -12 -4 -7 -8 -17 -9 -23 -4
-17 -14 -69 -18 -93 -3 -12 -8 -28 -13 -35 -4 -6 -6 -22 -4 -34 1 -13 -2 -23
-7 -23 -6 0 -9 -8 -8 -17 2 -10 -1 -36 -7 -58 -5 -22 -11 -51 -13 -65 -1 -13
-7 -26 -13 -28 -5 -2 -8 -9 -5 -17 3 -7 1 -16 -5 -20 -6 -3 -11 -14 -11 -24 0
-10 -9 -30 -21 -45 -11 -14 -18 -26 -15 -26 3 0 -15 -30 -40 -67 -43 -63 -52
-70 -147 -118 -56 -27 -105 -54 -109 -60 -4 -5 -8 -7 -8 -3 0 14 -117 -65
-179 -120 -35 -31 -124 -117 -198 -190 -74 -73 -138 -130 -143 -127 -5 3 -15
-2 -23 -10 -9 -8 -18 -15 -22 -15 -13 0 -50 -46 -53 -65 -1 -12 7 -31 18 -43
18 -19 24 -20 43 -11 12 7 29 20 38 31 9 10 28 18 42 18 14 0 29 5 32 10 3 6
16 10 29 10 12 0 26 3 30 8 4 4 11 7 16 7 18 0 159 124 142 125 -4 1 4 7 18
15 14 8 22 14 18 15 -8 0 39 49 50 51 4 1 24 15 45 31 20 16 37 27 37 24 0 -3
9 2 20 12 12 9 24 17 28 17 4 0 18 10 31 22 13 12 27 20 31 18 5 -3 10 2 14
10 3 8 0 15 -6 15 -6 0 -8 3 -5 6 4 4 14 1 23 -6 11 -10 18 -11 22 -3 4 6 19
15 35 18 15 4 25 11 22 15 -5 9 34 24 50 19 21 -6 85 -5 85 1 0 3 17 7 38 8
20 1 60 3 87 5 28 2 58 -1 68 -5 10 -5 17 -5 17 1 0 10 62 7 80 -4 5 -3 10 -1
10 5 0 6 5 8 11 4 7 -4 28 -8 48 -9 49 -4 84 -12 150 -36 31 -12 62 -21 69
-22 6 0 12 -4 12 -9 0 -5 4 -7 8 -4 17 10 225 -108 252 -142 3 -4 11 -8 19
-10 8 -2 35 -20 60 -40 25 -21 69 -53 98 -72 28 -19 49 -38 47 -41 -2 -3 14
-14 34 -24 39 -19 52 -23 90 -27 12 -1 22 -5 22 -8 0 -3 29 -7 65 -8 36 -1 65
0 65 2 0 13 -70 80 -95 92 -43 20 -90 48 -108 65 -34 30 -47 40 -47 34 0 -3
-11 5 -24 19 -13 15 -28 26 -34 26 -5 0 -12 7 -16 15 -3 8 -10 15 -15 15 -6 0
-31 21 -57 48 -26 26 -45 39 -41 30 4 -12 -1 -19 -16 -24 -13 -4 -23 -2 -25 5
-3 9 -11 6 -26 -8 -21 -20 -22 -20 -34 -1 -7 11 -9 20 -4 20 12 0 13 48 2 55
-6 4 -8 11 -5 16 4 5 1 9 -5 9 -7 0 -9 7 -5 18 5 13 3 14 -6 5 -15 -15 -62 5
-55 24 3 7 1 13 -5 13 -5 0 -16 15 -24 33 -15 36 -56 64 -77 52 -7 -5 -10 -5
-6 0 4 4 -9 16 -29 26 -27 14 -40 16 -50 8 -10 -9 -13 -7 -13 11 0 15 -4 20
-15 17 -17 -7 -58 40 -48 56 3 5 1 7 -4 4 -20 -13 -35 17 -50 98 -3 17 -10 33
-15 36 -6 4 -8 14 -5 22 3 9 3 17 -1 19 -4 2 -18 16 -32 32 -18 21 -20 28 -8
23 12 -4 15 -2 11 8 -3 8 -10 12 -17 8 -6 -4 -5 0 2 9 10 13 11 26 3 55 -10
38 -19 100 -24 158 -1 17 -6 36 -10 43 -5 7 -3 12 5 12 8 0 9 3 3 8 -12 9 -13
14 -16 86 -1 31 -6 59 -11 62 -4 3 -8 12 -8 20 0 10 5 12 13 8 9 -6 9 -5 0 7
-7 8 -13 32 -15 52 -1 20 -6 37 -11 37 -5 0 -7 9 -4 19 3 11 -1 22 -8 25 -10
3 -12 17 -8 48 3 24 5 66 3 93 -1 28 -3 89 -3 137 -1 49 -5 88 -9 88 -3 0 -4
14 -2 30 4 22 1 30 -9 30 -10 0 -15 -12 -15 -42z m90 -953 c12 -16 9 -23 -9
-21 -9 2 -17 10 -19 19 -2 17 16 19 28 2z m344 -453 c-9 -8 -26 10 -26 26 1
15 2 15 15 -2 8 -11 13 -21 11 -24z m49 -72 c-3 -5 -12 -10 -18 -10 -7 0 -6 4
3 10 19 12 23 12 15 0z m-1161 -205 c-4 -8 -8 -15 -10 -15 -2 0 -4 7 -4 15 0
8 4 15 10 15 5 0 7 -7 4 -15z"/>
<path d="M2500 4635 c-7 -8 -10 -15 -7 -15 3 0 -13 -33 -35 -72 -22 -40 -53
-98 -69 -128 -16 -30 -33 -59 -37 -65 -9 -12 -19 -36 -20 -49 0 -5 -4 -12 -9
-15 -20 -14 -53 -80 -43 -86 5 -3 10 -1 10 6 0 7 3 10 6 6 4 -3 23 2 44 13 21
11 40 17 44 15 3 -3 4 -2 2 1 -3 3 4 22 14 42 11 19 17 39 14 44 -3 4 -1 8 5
8 5 0 11 10 13 23 2 12 9 21 15 20 6 -1 14 4 17 12 3 8 1 15 -5 15 -6 0 -1 8
10 18 12 9 23 25 25 35 1 10 8 22 15 26 17 11 31 161 15 161 -6 0 -17 -7 -24
-15z"/>
<path d="M2653 4625 c0 -14 4 -28 9 -31 5 -3 4 -12 -3 -20 -6 -8 -7 -14 -2
-14 5 0 9 -13 8 -30 -1 -17 6 -38 17 -50 10 -11 16 -20 13 -20 -2 0 13 -29 35
-65 22 -36 40 -69 40 -74 0 -4 9 -20 20 -33 10 -14 16 -28 13 -32 -3 -3 -2 -6
4 -6 6 0 13 -9 16 -20 3 -12 14 -20 25 -20 12 0 24 -5 27 -10 5 -8 11 -8 19
-1 7 6 16 7 21 3 4 -4 -11 29 -35 73 -23 44 -51 97 -62 118 -11 20 -24 37 -30
37 -5 0 -7 4 -4 9 3 5 -1 14 -9 21 -8 7 -15 18 -15 24 0 6 -15 35 -34 63 -19
28 -32 54 -29 57 3 3 -2 8 -11 12 -9 3 -16 12 -16 20 0 8 -4 14 -9 14 -5 0 -8
-11 -8 -25z"/>
<path d="M2090 4285 c0 -8 2 -15 4 -15 2 0 6 7 10 15 3 8 1 15 -4 15 -6 0 -10
-7 -10 -15z"/>
<path d="M3960 4271 c-8 -10 -28 -26 -45 -36 -16 -10 -41 -29 -55 -41 -37 -34
-142 -94 -151 -88 -5 3 -9 -1 -9 -9 0 -8 -8 -17 -17 -21 -10 -3 -27 -11 -38
-18 -56 -37 -96 -58 -110 -58 -10 0 -13 -5 -9 -11 4 -7 1 -10 -7 -7 -8 3 -27
-1 -42 -9 -16 -8 -31 -12 -34 -10 -2 3 -18 1 -34 -3 -17 -5 -29 -5 -29 0 0 5
-6 7 -14 4 -8 -3 -25 0 -38 7 -13 7 -27 12 -31 11 -4 -1 -15 4 -23 13 -9 8
-22 15 -30 15 -8 0 -14 4 -14 8 0 8 -142 77 -200 97 -3 1 -14 5 -25 9 -51 20
-72 26 -92 29 -12 2 -26 6 -29 10 -4 4 -22 7 -40 7 -18 0 -34 5 -36 12 -3 7
-11 9 -24 3 -10 -4 -22 -7 -26 -7 -5 1 -8 -2 -8 -8 0 -5 -6 -7 -14 -4 -9 4
-15 -5 -18 -25 -3 -17 -1 -31 3 -31 5 0 6 -7 3 -15 -9 -22 15 -48 31 -35 9 8
15 8 20 0 3 -5 15 -10 26 -10 10 0 19 -5 19 -11 0 -5 3 -8 8 -6 4 3 18 0 32
-6 14 -5 32 -11 40 -12 8 -2 26 -6 40 -10 14 -3 32 -8 40 -10 8 -2 16 -4 18
-5 1 -2 5 -3 10 -4 22 -4 102 -42 102 -48 0 -5 8 -8 18 -8 9 0 28 -9 42 -20
14 -11 29 -20 33 -20 5 0 27 -13 50 -29 33 -22 43 -36 45 -59 1 -17 -2 -34 -8
-37 -6 -4 -8 -10 -5 -15 3 -4 -2 -24 -10 -44 -8 -20 -12 -36 -8 -36 5 0 3 -4
-3 -8 -11 -8 -43 -72 -42 -86 0 -5 -7 -13 -16 -18 -9 -5 -16 -18 -16 -28 0
-11 -5 -19 -12 -17 -7 1 -12 -4 -13 -11 0 -7 -5 -16 -11 -20 -12 -8 -37 -52
-32 -57 3 -3 124 75 144 94 7 5 15 7 18 4 3 -4 6 -1 6 6 0 9 8 11 21 8 12 -3
22 0 25 8 3 7 13 12 22 11 9 -2 24 5 34 14 10 9 35 18 56 19 95 6 110 6 106 0
-2 -4 -1 -15 2 -24 5 -13 9 -14 15 -4 6 10 10 10 23 0 15 -13 11 -45 -5 -35
-9 5 0 -27 10 -36 9 -8 45 -84 43 -92 -1 -3 5 -12 13 -18 8 -7 15 -20 15 -29
0 -9 7 -26 15 -37 8 -12 12 -24 9 -27 -3 -3 0 -16 7 -29 7 -12 12 -29 11 -35
-2 -7 1 -13 6 -13 5 0 9 -6 9 -12 2 -30 10 -75 14 -83 5 -10 10 -54 12 -102 1
-13 3 -23 7 -23 7 0 3 -218 -6 -260 -4 -19 -7 -45 -8 -57 0 -13 -4 -23 -9 -23
-5 0 -7 -6 -4 -14 3 -8 3 -17 -1 -21 -6 -5 -9 -23 -15 -77 0 -10 -4 -18 -8
-18 -4 0 -10 -12 -14 -27 -9 -37 -56 -136 -70 -145 -5 -4 -7 -8 -3 -8 22 0
-92 -171 -156 -235 -35 -35 -40 -36 -83 -19 -18 7 -33 11 -33 8 0 -2 -10 2
-23 11 -13 8 -27 12 -30 8 -4 -3 -7 -1 -7 5 0 7 -4 12 -10 12 -18 0 -129 75
-130 88 0 21 -20 13 -20 -8 0 -11 5 -20 11 -20 5 0 7 -4 4 -10 -3 -5 -2 -10 4
-10 6 0 14 -12 18 -27 3 -16 15 -47 25 -69 10 -23 20 -63 21 -88 2 -25 7 -49
10 -52 8 -9 -4 -37 -24 -54 -25 -22 -59 -45 -67 -46 -4 0 -18 -5 -32 -11 -89
-37 -105 -44 -107 -44 -2 0 -8 -1 -15 -3 -7 -3 -26 -8 -43 -12 -16 -4 -34 -9
-40 -10 -5 -2 -19 -5 -30 -8 -11 -2 -20 -5 -20 -6 0 -1 -11 -4 -25 -6 -14 -3
-27 -9 -28 -14 -2 -6 -10 -17 -18 -24 -28 -28 -48 -124 -26 -127 35 -4 82 -3
82 2 0 5 8 7 50 11 11 1 20 5 20 8 0 6 121 34 128 30 2 -1 14 5 27 14 13 8 34
17 48 20 14 2 36 10 49 17 24 14 34 16 86 22 40 5 145 -45 194 -94 19 -19 57
-55 84 -80 27 -25 59 -58 72 -73 12 -15 26 -25 30 -22 4 2 8 -4 9 -14 2 -21
27 -52 128 -155 39 -39 81 -86 95 -103 14 -18 28 -32 32 -32 4 0 37 -29 74
-65 37 -36 65 -65 62 -65 -3 0 21 -28 53 -62 72 -76 102 -86 53 -17 -19 27
-34 53 -34 59 0 5 -4 10 -10 10 -5 0 -10 7 -10 15 0 8 -5 15 -11 15 -5 0 -8 4
-5 8 3 5 -4 15 -15 22 -10 8 -19 20 -19 28 0 12 -7 23 -38 57 -7 8 -11 15 -7
15 3 0 -6 12 -20 27 -14 15 -25 31 -25 34 0 5 -13 22 -50 66 -5 7 -10 17 -10
23 0 6 -7 13 -15 16 -8 4 -12 10 -9 15 3 5 0 9 -5 9 -6 0 -11 5 -11 11 0 11
-52 89 -82 123 -10 11 -18 26 -18 33 0 7 -4 13 -9 13 -8 0 -24 37 -22 53 1 4
-4 7 -11 7 -6 0 -9 3 -5 6 3 4 -4 25 -17 48 -12 22 -21 47 -19 54 3 6 1 12 -5
12 -5 0 -14 12 -20 26 -7 14 -16 23 -21 20 -5 -4 -12 0 -14 6 -3 7 -6 4 -7 -7
-1 -18 -3 -17 -12 5 -15 35 -18 51 -7 44 5 -3 9 -2 9 1 0 11 -34 65 -40 65 -4
0 -7 7 -7 15 0 8 4 12 9 9 4 -3 8 1 9 8 2 26 7 63 12 83 3 11 7 26 9 34 1 8
10 22 18 31 32 36 50 61 50 69 0 4 11 21 25 37 14 16 25 35 25 42 0 6 4 12 8
12 5 0 17 18 27 40 10 22 23 40 28 40 6 0 8 3 4 6 -3 4 1 20 9 36 8 16 12 34
8 40 -4 7 -3 8 4 4 8 -5 12 2 12 18 0 14 5 26 12 26 6 0 9 3 5 6 -3 4 0 19 9
35 8 16 12 29 9 29 -3 0 2 14 11 32 9 17 18 45 21 62 2 17 7 38 10 46 8 21 12
40 16 75 2 17 5 35 8 40 3 6 4 20 3 33 0 12 4 22 10 22 6 0 5 4 -3 9 -11 7 -9
13 8 30 12 12 26 19 31 16 6 -4 10 -2 10 2 0 8 15 12 58 15 6 1 12 5 12 10 0
4 14 8 31 8 17 0 39 5 50 10 14 8 19 7 19 -2 0 -10 2 -10 9 0 4 8 11 13 15 12
3 -1 25 2 49 6 71 13 79 13 187 19 134 7 227 18 238 29 1 2 -5 9 -15 17 -15
12 -16 12 -8 -1 7 -12 6 -13 -6 -4 -8 6 -30 11 -49 11 -71 1 -140 7 -140 12 0
3 -15 7 -33 8 -43 4 -60 7 -74 16 -6 4 -14 3 -18 -3 -4 -6 -11 -8 -16 -5 -5 3
-23 8 -41 10 -74 9 -111 16 -122 22 -6 4 -19 8 -28 9 -10 1 -19 3 -20 4 -2 1
-15 3 -29 4 -14 2 -31 6 -38 10 -6 4 -25 9 -42 11 -35 5 -58 28 -60 63 -1 12
-2 25 -4 30 -1 4 -5 25 -9 47 -4 22 -14 54 -21 70 -7 17 -21 54 -31 84 -10 29
-28 63 -40 76 -11 12 -20 32 -19 44 1 14 -3 20 -11 17 -18 -7 -26 5 -13 20 8
10 6 21 -8 41 -17 24 -30 49 -38 73 -1 3 -7 18 -13 33 -7 16 -12 32 -12 37 0
5 5 21 12 37 6 15 12 30 13 33 7 26 19 56 25 60 3 3 21 35 39 73 18 37 38 73
44 80 7 7 20 28 30 47 10 19 26 46 37 60 65 83 119 162 125 179 8 26 4 26 -15
2z m-710 -741 c0 -5 -4 -10 -9 -10 -6 0 -13 5 -16 10 -3 6 1 10 9 10 9 0 16
-4 16 -10z"/>
<path d="M2013 4265 c-18 -8 -33 -12 -33 -9 0 3 -7 -2 -16 -10 -8 -9 -19 -14
-23 -12 -4 3 -8 -1 -8 -9 0 -8 4 -15 8 -15 13 0 84 34 87 43 2 4 7 5 12 2 4
-3 10 2 14 10 7 18 0 18 -41 0z"/>
<path d="M3094 4264 c10 -7 23 -11 27 -8 5 3 9 0 9 -6 0 -6 4 -9 9 -5 5 3 12
1 16 -5 4 -6 11 -8 16 -5 5 4 9 1 9 -4 0 -6 9 -11 19 -11 11 0 22 -4 26 -9 3
-5 19 -12 35 -16 17 -4 30 -11 30 -16 0 -5 8 -9 18 -9 10 0 23 -5 29 -11 9 -9
12 -7 10 10 -1 13 -8 21 -19 21 -10 0 -18 4 -18 9 0 9 -48 26 -62 23 -5 -1 -8
3 -8 9 0 5 -4 8 -9 4 -5 -3 -12 -1 -16 5 -4 6 -11 8 -16 5 -5 -4 -9 -2 -9 3 0
5 -6 9 -12 10 -7 1 -33 5 -58 11 -39 8 -42 7 -26 -5z"/>
<path d="M1270 4232 c0 -5 29 -43 65 -85 36 -43 62 -77 58 -77 -4 0 0 -5 9
-11 17 -9 22 -59 7 -59 -7 0 23 -63 40 -84 6 -7 8 -16 4 -19 -3 -4 -1 -7 5 -7
7 0 12 -9 12 -20 0 -11 3 -20 8 -20 4 0 15 -26 25 -57 17 -52 17 -70 4 -128
-2 -5 -10 -25 -20 -44 -9 -19 -17 -40 -17 -48 0 -7 -5 -13 -10 -13 -6 0 -9 -3
-9 -7 4 -24 -3 -53 -14 -65 -15 -15 -28 -44 -34 -73 -2 -10 -8 -22 -14 -25 -5
-4 -9 -11 -8 -16 1 -5 -5 -26 -14 -46 -10 -21 -19 -48 -21 -60 -3 -13 -5 -23
-6 -23 -1 0 -4 -11 -6 -25 -2 -13 -8 -27 -12 -30 -4 -3 -7 -16 -6 -30 0 -14
-2 -29 -6 -35 -3 -5 -6 -17 -5 -25 0 -8 -4 -20 -10 -26 -14 -15 -127 -53 -165
-56 -17 -1 -34 -6 -36 -10 -3 -5 -9 -6 -14 -3 -5 3 -20 1 -34 -5 -19 -7 -26
-6 -26 3 0 9 -2 9 -8 0 -4 -7 -27 -13 -50 -14 -24 -2 -46 -7 -49 -12 -3 -5 -9
-3 -14 4 -6 10 -9 11 -9 2 0 -7 -9 -13 -20 -13 -21 0 -60 -19 -71 -33 -3 -5
-9 -1 -12 8 -5 13 -11 14 -27 5 -11 -6 -43 -13 -70 -15 -28 -3 -60 -10 -71
-16 -11 -6 -27 -8 -35 -5 -8 3 -14 1 -14 -5 0 -6 -4 -8 -9 -5 -5 3 -13 0 -19
-7 -9 -10 9 -12 89 -12 55 1 102 -2 104 -6 3 -3 46 -7 97 -9 127 -2 138 -3
138 -10 0 -4 13 -7 30 -7 16 0 27 4 25 8 -6 9 22 6 31 -4 4 -4 13 2 21 13 13
19 15 19 41 3 15 -10 30 -21 33 -26 3 -4 25 -10 49 -12 23 -3 49 -10 56 -16 8
-6 14 -8 14 -5 0 4 6 1 13 -5 7 -7 12 -24 12 -38 -1 -14 2 -36 7 -48 5 -16 4
-23 -5 -23 -9 0 -8 -3 1 -9 7 -4 15 -21 16 -37 2 -16 6 -36 9 -44 6 -16 18
-64 24 -93 1 -10 9 -30 16 -45 8 -15 20 -48 27 -75 7 -26 17 -50 21 -53 5 -3
9 -12 9 -21 0 -8 9 -27 20 -43 11 -15 16 -30 13 -34 -4 -4 1 -4 12 0 17 7 18
5 8 -8 -11 -12 -9 -18 7 -33 20 -18 21 -18 14 1 -5 15 -4 16 4 4 6 -8 7 -19 3
-25 -8 -9 59 -124 107 -183 15 -19 18 -38 16 -94 -1 -46 -7 -74 -15 -79 -11
-7 -11 -9 1 -9 12 0 12 -2 2 -9 -8 -4 -13 -10 -12 -12 2 -5 -10 -40 -19 -59
-5 -9 -2 -19 8 -27 15 -11 14 -12 -1 -13 -10 0 -18 -7 -18 -15 0 -15 -11 -19
-39 -15 -9 1 -12 -4 -8 -14 4 -9 2 -16 -3 -16 -4 0 -11 -14 -15 -30 -4 -17
-11 -30 -16 -30 -6 0 -7 -5 -3 -11 3 -6 3 -14 -2 -18 -5 -3 -22 -25 -38 -48
-16 -24 -33 -43 -38 -43 -5 0 -6 -4 -3 -10 3 -5 -3 -17 -15 -27 -11 -10 -20
-23 -20 -30 0 -7 -4 -13 -10 -13 -5 0 -10 -5 -10 -11 0 -6 -13 -30 -30 -53
-16 -24 -27 -46 -24 -48 2 -3 -2 -11 -11 -18 -8 -7 -15 -18 -15 -25 0 -6 -9
-20 -20 -30 -11 -10 -20 -24 -20 -32 0 -7 -4 -13 -10 -13 -5 0 -10 -7 -10 -16
0 -8 -4 -13 -9 -10 -4 3 -17 -10 -27 -29 -10 -19 -22 -35 -27 -35 -4 0 -5 -4
-2 -10 3 -5 2 -10 -3 -10 -5 0 -15 -12 -23 -27 -8 -16 -28 -48 -45 -73 -30
-43 -48 -80 -39 -80 9 0 110 110 138 150 9 13 17 22 17 18 0 -3 27 21 60 54
33 34 60 57 60 52 0 -5 11 7 24 26 13 19 38 47 57 63 18 15 29 27 23 27 -5 0
5 9 21 20 17 11 27 20 24 20 -4 0 8 17 27 37 65 70 71 78 122 140 28 34 60 64
72 68 11 3 19 9 17 13 -1 4 1 8 6 10 11 3 47 41 48 50 1 11 43 31 54 25 5 -4
7 -2 2 2 -4 5 16 21 44 37 50 27 91 30 123 10 6 -3 20 -8 31 -9 11 -2 22 -8
23 -13 2 -6 12 -10 21 -10 10 0 21 -3 25 -7 4 -4 18 -9 32 -11 15 -1 37 -10
50 -19 13 -8 24 -12 24 -9 0 4 10 1 22 -5 13 -7 36 -14 52 -16 17 -2 33 -8 37
-14 3 -6 17 -10 30 -8 13 1 31 -1 39 -4 8 -3 27 -8 42 -11 l27 -6 -15 32 c-8
18 -19 45 -25 60 -6 16 -15 26 -19 23 -4 -3 -11 2 -14 11 -3 8 -10 12 -16 9
-7 -4 -7 2 -1 19 7 18 6 28 -4 36 -22 19 -82 29 -94 17 -8 -8 -11 -8 -11 1 0
13 -46 37 -81 41 -5 0 -7 6 -4 11 4 6 3 10 -2 9 -24 -4 -43 2 -37 13 4 6 3 8
-4 4 -6 -3 -38 8 -71 26 l-61 32 4 68 c2 38 10 76 17 85 8 9 13 24 11 35 -2
10 1 18 6 18 5 0 8 10 7 23 -1 12 -3 27 -4 34 -1 12 -11 12 -48 -1 -13 -4 -23
-12 -23 -17 0 -5 -7 -9 -15 -9 -8 0 -15 -5 -15 -11 0 -5 -5 -7 -11 -3 -6 3 -3
-5 6 -20 17 -26 17 -26 -5 -23 -12 2 -25 10 -30 17 -7 11 -12 11 -23 2 -7 -7
-17 -9 -20 -5 -4 3 -7 2 -7 -4 0 -8 -12 -9 -51 -4 -13 2 -79 68 -79 78 0 6 -3
13 -7 15 -9 4 -63 74 -63 82 0 3 -18 31 -40 62 -22 32 -40 63 -40 71 0 7 -3
13 -8 13 -4 0 -16 30 -27 67 -10 37 -25 80 -33 95 -7 15 -10 33 -6 39 4 7 3 9
-3 6 -6 -4 -10 8 -11 28 -1 20 -6 44 -12 54 -5 11 -10 29 -10 40 0 12 -5 21
-11 21 -8 0 -9 4 0 13 6 8 8 17 5 20 -9 8 -7 164 2 207 4 19 7 50 8 68 0 17 3
32 6 32 3 0 5 12 6 28 1 25 6 62 18 119 3 12 10 31 16 43 6 11 8 26 4 32 -4 7
-3 8 4 4 7 -4 12 -1 12 7 0 19 51 131 62 135 4 2 8 12 8 22 0 10 4 20 9 22 4
2 26 30 46 63 21 33 40 54 43 47 2 -6 12 -12 22 -12 20 0 201 -93 232 -119 11
-9 29 -24 40 -33 12 -10 30 -18 41 -18 18 0 19 1 3 23 -17 23 -26 40 -48 95
-7 17 -16 32 -20 32 -5 0 -8 11 -8 25 0 13 -7 28 -16 33 -10 5 -18 21 -18 35
-1 13 -7 32 -14 40 -7 8 -14 23 -16 33 -2 11 -6 24 -8 30 -4 13 103 124 114
118 4 -3 8 -1 8 3 0 5 17 17 38 28 20 10 43 24 51 29 7 6 18 11 25 12 30 5 42
10 53 24 7 8 13 12 13 7 0 -4 13 -1 29 7 16 9 31 12 35 9 3 -4 6 -1 6 6 0 8 8
11 20 8 11 -3 23 -1 26 4 3 5 10 7 15 4 5 -4 9 -2 9 3 0 4 12 9 28 9 15 1 38
4 52 7 14 3 37 8 53 12 26 5 31 14 28 41 -1 7 3 22 10 34 9 17 8 20 -3 14 -10
-6 -11 -5 0 6 27 30 14 40 -46 36 -32 -2 -63 -7 -70 -11 -7 -4 -12 -5 -12 -2
0 3 -17 -1 -37 -8 -21 -6 -47 -12 -58 -12 -11 1 -23 -3 -27 -9 -4 -5 -11 -10
-15 -11 -38 -3 -82 -18 -77 -25 3 -5 -2 -9 -10 -9 -25 0 -30 -2 -51 -16 -11
-8 -27 -14 -37 -14 -10 0 -18 -4 -18 -9 0 -5 -8 -11 -17 -15 -10 -3 -42 -19
-71 -36 -29 -16 -50 -24 -47 -17 4 7 1 5 -7 -3 -24 -27 -64 -41 -121 -43 -54
-2 -63 2 -57 28 1 5 -2 7 -5 3 -6 -6 -119 46 -135 62 -3 3 -18 12 -35 20 -16
8 -35 22 -42 31 -7 9 -26 22 -43 29 -16 7 -30 16 -30 20 0 5 -11 7 -25 5 -14
-1 -25 2 -25 7 0 5 -18 27 -40 49 -22 22 -40 36 -40 31z m170 -157 c0 -12 -29
-3 -34 10 -4 13 -2 14 14 5 11 -6 20 -13 20 -15z m32 -47 c15 -17 28 -36 28
-41 0 -17 -43 19 -46 38 -1 10 -9 22 -16 26 -7 5 -9 9 -4 9 5 0 22 -14 38 -32z"/>
<path d="M1900 4223 c0 -7 -5 -13 -10 -13 -15 0 -169 -89 -193 -111 -12 -10
-24 -19 -29 -19 -4 0 -8 -7 -8 -15 0 -26 33 -16 85 24 27 22 53 37 59 34 5 -3
6 -1 2 5 -4 7 -1 12 8 12 8 0 21 6 28 13 14 14 49 31 60 29 11 -2 16 24 7 39
-6 10 -9 10 -9 2z"/>
<path d="M3420 4120 c0 -12 56 -63 78 -71 10 -4 28 -2 42 3 l25 9 -24 20 c-13
10 -29 19 -37 19 -8 0 -14 5 -14 11 0 5 -4 8 -9 4 -5 -3 -12 -1 -16 5 -8 13
-45 13 -45 0z"/>
<path d="M2195 3940 c-4 -6 -11 -8 -16 -5 -5 4 -9 1 -9 -5 0 -6 -13 -16 -29
-21 -21 -7 -33 -21 -41 -45 -6 -19 -16 -34 -21 -34 -5 0 -9 -8 -9 -18 0 -10
-5 -23 -12 -30 -9 -9 -9 -12 3 -12 8 0 -4 -16 -26 -36 -22 -21 -34 -34 -27
-30 9 5 12 -4 12 -35 0 -34 -3 -40 -12 -31 -23 23 -41 14 -34 -15 4 -16 7 -33
8 -39 1 -6 10 -17 21 -23 14 -9 17 -9 12 -1 -4 6 7 31 24 55 17 24 31 48 31
54 0 6 10 19 22 31 12 11 19 23 15 26 -3 3 3 15 13 26 10 12 22 34 25 49 4 16
10 29 13 29 8 0 32 49 32 66 0 6 7 14 15 18 8 3 15 12 15 21 0 17 -16 20 -25
5z"/>
<path d="M2991 3898 c12 -24 25 -45 29 -48 3 -3 13 -20 21 -37 8 -18 17 -33
21 -33 5 0 8 -7 8 -16 0 -8 5 -12 10 -9 6 3 10 0 10 -7 0 -19 49 -110 70 -130
17 -16 19 -15 31 15 7 18 18 35 23 40 8 5 8 9 0 15 -17 12 -54 79 -47 85 3 4
2 7 -4 7 -5 0 -25 29 -44 65 -18 36 -37 65 -41 65 -15 0 -23 2 -38 10 -8 4
-28 10 -43 14 l-28 7 22 -43z"/>
<path d="M3780 3862 c-8 -10 -17 -25 -18 -33 -10 -39 -10 -49 -1 -49 5 0 9 -6
9 -14 0 -8 7 -17 16 -20 8 -3 13 -10 10 -14 -3 -5 4 -18 14 -30 11 -12 20 -26
20 -32 0 -5 5 -10 10 -10 6 0 10 -9 10 -20 0 -11 5 -20 10 -20 6 0 10 -7 10
-15 0 -8 5 -15 10 -15 6 0 10 -9 10 -19 0 -11 4 -23 10 -26 13 -8 50 -93 50
-116 0 -11 5 -19 11 -19 6 0 9 -6 6 -12 -2 -7 6 -37 19 -65 13 -29 20 -53 17
-53 -3 0 -1 -6 6 -13 8 -10 7 -17 -2 -27 -9 -10 -9 -11 1 -6 8 5 12 0 13 -16
0 -13 2 -30 4 -38 2 -8 6 -26 9 -39 9 -42 30 -54 104 -63 6 -1 12 -5 12 -10 0
-5 10 -4 21 3 13 7 19 7 15 1 -3 -6 -2 -13 3 -16 5 -4 12 -2 15 3 4 5 25 3 53
-5 25 -8 48 -12 50 -10 2 2 -5 24 -16 50 -11 25 -18 46 -16 46 2 0 -4 20 -15
45 -11 25 -17 45 -13 45 3 0 -2 9 -12 20 -10 11 -16 20 -12 20 6 0 -22 56 -72
143 -18 31 -37 57 -42 57 -5 0 -9 6 -9 13 0 6 -25 50 -55 95 -30 46 -55 88
-55 93 0 6 -4 7 -10 4 -5 -3 -10 1 -10 10 0 8 -7 18 -15 21 -8 4 -13 9 -12 13
2 3 -31 41 -73 84 -71 72 -76 76 -90 59z"/>
<path d="M1380 3861 c0 -6 -6 -11 -12 -11 -7 -1 -26 -18 -43 -39 -16 -21 -32
-37 -35 -36 -3 2 -15 -10 -25 -26 -11 -16 -23 -29 -27 -29 -5 0 -8 -4 -8 -10
0 -5 -10 -20 -22 -34 -35 -37 -48 -54 -48 -63 0 -4 -12 -19 -26 -32 -19 -18
-24 -32 -21 -50 4 -19 -3 -33 -27 -56 -17 -16 -42 -45 -55 -64 -20 -27 -21
-35 -10 -42 8 -5 10 -9 5 -9 -5 0 -4 -6 2 -13 14 -17 -2 -42 -22 -34 -9 4 -16
2 -16 -4 0 -6 -6 -7 -12 -3 -7 4 -10 4 -6 -1 4 -4 3 -17 -3 -28 -9 -15 -8 -18
3 -12 8 4 7 1 -2 -7 -13 -11 -18 -32 -10 -40 2 -2 4 -20 5 -41 2 -29 -1 -37
-11 -33 -8 3 -14 0 -14 -7 0 -8 -3 -7 -9 2 -7 11 -13 6 -25 -23 -24 -57 -24
-71 -1 -70 30 2 59 9 71 16 6 4 22 9 37 12 15 2 31 7 37 11 5 3 10 1 10 -6 0
-8 5 -7 18 3 9 9 23 13 30 11 6 -3 12 0 12 7 0 6 5 8 10 5 6 -3 10 0 11 7 0 7
1 27 2 44 2 35 -17 63 -27 39 -2 -7 0 -16 7 -18 7 -2 9 -8 5 -12 -4 -4 -14 0
-23 9 -9 9 -12 16 -6 16 6 0 11 12 11 26 0 16 4 23 11 18 7 -4 10 -1 7 7 -3 8
7 25 21 38 19 19 21 23 7 18 -17 -7 -17 -6 -5 9 8 10 13 20 12 23 -1 3 5 5 12
3 13 -3 50 62 46 81 -2 11 79 176 101 206 10 13 15 27 12 32 -3 5 -1 9 5 9 5
0 12 8 15 18 4 10 14 27 24 38 10 10 25 35 34 54 15 30 15 37 2 51 -8 8 -14
21 -14 27 0 6 -4 14 -10 17 -5 3 -10 1 -10 -4z"/>
<path d="M3276 3464 c-20 -20 -20 -38 -1 -54 9 -7 14 -18 12 -24 -2 -6 5 -19
16 -28 11 -10 17 -18 13 -18 -4 0 0 -7 8 -16 9 -8 14 -20 11 -25 -4 -5 -2 -9
3 -9 5 0 12 -8 15 -17 6 -18 37 -74 47 -83 3 -3 10 -16 16 -30 13 -29 83 -110
95 -110 5 0 22 -14 40 -31 17 -17 34 -27 38 -23 3 4 0 9 -7 11 -6 3 -10 9 -6
14 3 5 0 9 -5 9 -6 0 -11 9 -11 20 0 11 -4 20 -9 20 -5 0 -14 14 -20 30 -5 17
-15 30 -20 30 -6 0 -8 7 -5 15 4 8 1 15 -5 15 -6 0 -11 6 -11 13 0 7 -15 30
-32 52 -18 22 -27 36 -20 31 7 -4 -1 14 -18 40 -16 26 -30 54 -30 61 0 7 -4
13 -9 13 -5 0 -21 25 -36 55 -28 57 -43 66 -69 39z"/>
<path d="M1845 3429 c4 -5 0 -18 -7 -27 -8 -9 -36 -60 -63 -112 -26 -52 -56
-107 -67 -122 -21 -30 -17 -36 8 -15 48 38 152 146 147 151 -4 3 -1 6 5 6 6 0
16 16 23 35 7 19 16 35 20 35 5 0 6 9 4 20 -2 11 1 20 7 20 28 0 -5 12 -42 16
-28 3 -39 1 -35 -7z"/>
<path d="M2513 3259 c-12 -4 -26 -17 -32 -28 -6 -11 -17 -26 -23 -33 -38 -41
-39 -88 -2 -88 9 0 12 -5 8 -11 -4 -8 0 -8 15 0 17 10 22 9 28 -5 3 -9 0 -20
-8 -25 -8 -5 -9 -9 -4 -9 6 0 4 -4 -4 -9 -7 -5 -13 -20 -13 -33 0 -14 -6 -25
-12 -25 -6 0 -11 15 -10 35 2 26 -2 36 -17 39 -10 3 -19 9 -19 13 0 5 -9 6
-20 3 -12 -3 -18 -8 -15 -11 2 -3 1 -10 -4 -16 -5 -6 -11 -29 -14 -51 -3 -22
-9 -58 -13 -80 -9 -54 -9 -64 0 -105 4 -19 9 -42 10 -50 13 -61 20 -79 27 -74
5 3 6 -2 3 -10 -3 -9 -1 -16 5 -16 6 0 11 -7 11 -16 0 -34 116 -173 169 -202
12 -8 20 -9 17 -4 -3 5 8 12 24 16 43 8 100 67 94 97 -2 13 -2 19 2 12 4 -10
8 -10 19 0 8 8 9 14 3 18 -6 4 -2 12 11 18 11 7 21 18 21 26 0 8 5 15 10 15 6
0 10 7 10 15 0 8 4 15 10 15 5 0 7 7 4 15 -4 8 -1 15 5 15 7 0 9 10 7 25 -3
14 -2 25 2 25 4 0 8 10 9 23 11 147 13 208 5 204 -4 -4 -8 11 -8 33 1 21 -3
38 -8 37 -5 -1 -10 9 -11 21 -1 13 -7 27 -14 32 -7 4 -12 11 -12 16 2 20 -19
64 -30 64 -7 0 -10 3 -6 6 3 3 -5 18 -19 32 -13 15 -24 29 -24 32 0 9 -164 8
-187 -1z m93 -131 c5 -24 8 -47 9 -53 0 -5 4 -13 8 -16 5 -3 9 -36 10 -72 1
-36 5 -63 10 -60 9 5 4 -27 -6 -44 -5 -8 -3 -13 3 -13 6 0 8 -5 3 -12 -10 -16
-12 -32 -14 -88 -1 -25 -5 -49 -10 -55 -8 -11 -9 -15 -9 -45 0 -12 -7 -20 -16
-20 -12 0 -15 7 -12 25 3 13 1 22 -3 19 -9 -5 -13 9 -10 34 1 8 -2 19 -8 26
-5 6 -11 31 -12 54 -2 23 -6 42 -9 42 -3 0 -6 9 -6 20 0 11 4 20 8 20 5 0 4 8
-1 19 -6 10 -7 21 -4 25 4 4 9 19 11 34 2 15 9 30 15 34 9 6 9 8 0 8 -14 0
-18 36 -5 44 4 2 7 22 7 43 0 22 6 44 15 51 11 10 11 11 1 6 -9 -5 -12 -3 -7
4 14 22 24 12 32 -30z m-72 -174 c3 -8 2 -12 -4 -9 -6 3 -10 10 -10 16 0 14 7
11 14 -7z m-97 -59 c0 -8 -4 -12 -9 -9 -4 3 -8 9 -8 15 0 5 4 9 8 9 5 0 9 -7
9 -15z"/>
<path d="M2310 3235 c-7 -9 -8 -15 0 -20 5 -3 10 -2 10 4 0 5 8 11 18 13 16 3
16 4 0 10 -9 4 -21 1 -28 -7z"/>
<path d="M2217 3207 c-13 -16 -20 -18 -23 -9 -5 9 -18 6 -52 -14 -26 -15 -49
-30 -52 -34 -3 -4 -21 -15 -40 -26 -19 -10 -40 -26 -47 -34 -7 -8 -13 -12 -13
-8 0 13 -80 -66 -80 -80 0 -7 -5 -10 -10 -7 -9 6 -23 -7 -102 -96 -31 -35 -75
-62 -88 -54 -5 3 -10 1 -10 -6 0 -7 -3 -10 -6 -6 -3 3 -17 2 -30 -3 -14 -6
-37 -12 -52 -15 -25 -4 -52 -28 -52 -47 0 -4 14 -15 32 -24 18 -9 37 -22 44
-28 7 -6 26 -22 44 -36 58 -45 113 -94 147 -130 94 -100 133 -144 133 -149 0
-3 15 -12 33 -20 17 -8 36 -19 40 -25 6 -8 10 -7 14 2 2 6 14 12 26 11 l22 0
-22 -11 c-28 -13 -29 -22 -5 -45 18 -19 43 -23 53 -9 4 5 15 5 25 1 13 -5 15
-9 7 -12 -16 -6 -17 -43 -2 -43 6 0 17 -7 26 -15 8 -8 19 -13 24 -10 5 4 9 2
9 -3 0 -5 11 -15 25 -22 14 -8 33 -30 43 -49 9 -20 29 -47 45 -60 15 -13 35
-37 43 -53 9 -18 21 -28 29 -24 9 3 15 -3 17 -17 2 -12 10 -23 18 -23 33 -3
34 -5 10 -19 -16 -9 -27 -10 -31 -3 -4 7 -9 6 -13 -1 -4 -6 -2 -11 3 -11 6 0
11 -11 11 -25 0 -13 9 -33 21 -43 11 -11 21 -29 22 -41 1 -11 5 -21 10 -21 5
0 5 -9 2 -20 -3 -11 -2 -20 3 -20 5 0 13 -16 16 -35 5 -23 13 -35 23 -35 9 0
13 -3 10 -6 -3 -4 0 -16 8 -26 7 -11 11 -27 8 -34 -3 -8 1 -22 8 -31 12 -14
12 -15 1 -9 -12 7 -12 4 -1 -15 7 -13 12 -28 10 -34 -1 -5 -4 -25 -5 -45 -2
-23 -7 -34 -16 -32 -11 2 -11 0 -1 -11 16 -20 22 -55 11 -62 -6 -4 -4 -14 3
-26 8 -14 9 -22 1 -27 -9 -6 -16 -56 -17 -129 -1 -13 -4 -23 -7 -23 -9 0 -6
-63 4 -79 7 -11 6 -12 -5 -6 -11 7 -12 6 -2 -6 7 -9 13 -47 14 -85 1 -38 5
-79 10 -90 4 -13 3 -26 -4 -33 -7 -7 -8 -11 0 -11 6 0 11 -27 12 -67 2 -89 3
-103 11 -103 3 0 6 -17 5 -38 0 -20 4 -40 8 -43 5 -4 10 -47 10 -98 1 -53 6
-91 12 -91 6 0 3 -5 -5 -10 -10 -7 -11 -13 -5 -17 6 -5 11 -20 12 -35 1 -58 3
-68 11 -68 4 0 8 51 9 112 1 62 4 129 8 148 3 19 7 73 9 120 1 48 5 91 9 96 7
12 4 34 -7 53 -7 10 -5 12 3 6 10 -5 11 -3 4 11 -8 16 -10 179 -3 179 2 0 4
10 5 22 1 13 -2 23 -8 23 -6 0 -5 5 1 13 6 7 12 31 13 52 1 22 6 47 10 56 5 9
3 21 -4 29 -9 10 -9 14 1 17 6 3 9 10 5 16 -8 13 -12 207 -4 202 3 -1 7 15 9
38 1 22 7 46 12 52 6 7 7 14 5 17 -3 3 -1 17 4 30 7 18 6 29 -2 37 -8 8 -8 11
1 11 7 0 10 10 8 22 -1 12 5 45 15 73 19 56 19 116 -2 141 -11 14 -8 26 26 89
21 41 49 78 60 83 12 6 27 28 34 50 9 25 21 42 34 46 13 3 18 10 14 20 -4 9
-2 16 3 16 6 0 10 8 10 18 0 11 16 27 38 40 32 18 42 19 58 9 21 -14 44 -16
44 -4 0 4 0 12 0 18 0 5 -4 7 -10 4 -5 -3 -10 -2 -10 4 0 6 9 15 20 21 12 6
18 16 14 23 -4 7 -3 9 1 4 5 -4 14 5 21 20 l11 28 -1 -32 c0 -17 -4 -29 -8
-27 -7 5 -10 -4 -7 -22 0 -4 -5 -11 -13 -15 -9 -6 -6 -8 10 -6 13 2 27 9 31
16 5 7 11 12 15 12 18 -3 26 0 26 9 0 6 -7 10 -16 10 -11 0 -14 5 -10 16 4 9
1 24 -6 33 -11 14 -11 14 4 3 18 -15 34 0 22 20 -4 6 4 3 18 -8 14 -10 24 -22
22 -26 -2 -4 0 -9 5 -12 10 -7 9 13 -2 31 -5 7 3 10 24 9 21 -2 33 4 40 16 5
10 14 18 20 18 12 0 44 30 32 30 -4 0 -3 4 3 8 6 4 30 34 54 67 65 89 179 195
209 195 5 0 12 7 15 15 3 9 19 21 36 26 16 6 30 15 30 21 0 6 6 8 14 5 8 -3
20 1 26 8 15 18 7 21 -70 30 -141 15 -157 19 -192 45 -15 11 -30 20 -34 20 -3
0 -19 9 -35 21 -17 12 -37 18 -46 15 -13 -5 -14 -4 -3 9 11 13 7 21 -26 50
-21 19 -48 43 -59 53 -11 10 -37 29 -57 43 -21 13 -38 28 -38 32 0 5 -4 5 -10
2 -5 -3 -10 -1 -10 5 0 6 -4 8 -10 5 -5 -3 -10 1 -10 9 0 9 -7 17 -15 17 -17
2 -24 3 -47 12 -10 4 -26 10 -35 14 -10 3 -21 7 -25 8 -5 2 -11 4 -15 5 -5 1
-11 2 -15 1 -5 0 -8 3 -8 7 0 4 -10 8 -22 9 -12 1 -34 7 -50 14 -16 6 -31 10
-33 7 -10 -9 36 -57 49 -52 7 3 16 -3 20 -13 6 -15 9 -15 17 -3 9 12 10 11 5
-4 -4 -11 -1 -23 6 -27 9 -6 6 -13 -10 -28 l-23 -19 23 -8 c13 -4 26 -7 30 -6
3 1 9 -5 12 -13 3 -9 0 -12 -9 -9 -9 4 -13 -1 -12 -15 1 -16 4 -18 16 -8 12 9
13 9 7 0 -4 -9 -1 -13 10 -13 13 0 14 -3 4 -15 -7 -8 -9 -22 -6 -31 5 -14 9
-14 24 -3 9 7 7 2 -6 -12 -20 -23 -21 -28 -8 -38 8 -7 21 -9 28 -5 7 4 10 4 6
-1 -4 -4 -3 -14 3 -21 7 -9 5 -14 -11 -19 -11 -3 -18 -10 -15 -15 7 -12 -6
-41 -16 -34 -5 3 -6 -2 -3 -10 5 -13 9 -12 25 7 11 13 18 17 19 9 0 -8 5 -10
13 -6 13 8 -3 -14 -40 -55 -17 -19 -19 -29 -12 -43 5 -10 16 -18 24 -18 9 0
15 -9 14 -22 -1 -17 -3 -18 -6 -6 -5 20 -33 13 -33 -9 0 -8 -4 -12 -8 -9 -4 2
-13 -4 -20 -15 -7 -11 -8 -19 -2 -19 5 0 7 -7 3 -15 -4 -11 -14 -14 -34 -11
-32 5 -38 -8 -11 -23 20 -11 9 -27 -23 -33 -13 -2 -19 2 -17 11 3 12 1 12 -14
1 -10 -9 -12 -16 -5 -18 6 -2 11 -10 11 -17 0 -16 -34 -38 -43 -28 -9 8 -38
-17 -32 -27 8 -12 -32 -19 -44 -7 -7 7 -15 6 -26 -3 -11 -9 -13 -15 -5 -20 8
-5 7 -9 -4 -13 -9 -4 -16 -2 -16 3 0 13 -37 13 -45 0 -4 -7 -13 -7 -26 0 -13
7 -19 7 -19 0 0 -16 -27 -12 -34 6 -4 9 -13 14 -21 10 -13 -5 -20 5 -16 27 2
11 -24 8 -37 -5 -9 -9 -12 -7 -12 9 0 29 -15 37 -34 18 -13 -14 -16 -14 -24 2
-9 16 -11 16 -27 0 -9 -9 -24 -17 -32 -17 -14 0 -14 2 1 19 17 18 17 20 -1 38
-10 10 -23 29 -30 43 -6 14 -12 19 -12 13 -1 -18 -21 -16 -21 2 0 8 5 15 10
15 6 0 10 7 10 15 0 23 -20 18 -29 -7 -7 -19 -8 -20 -14 -3 -4 9 -2 24 4 32 7
7 9 17 5 20 -10 10 -66 11 -66 1 0 -20 -18 -5 -23 18 -3 19 -1 24 11 19 13 -5
13 -3 1 12 -9 11 -10 14 -2 9 7 -4 21 -2 30 3 14 8 14 10 3 11 -10 0 -7 5 8
16 25 17 30 39 7 30 -8 -3 -15 0 -15 6 0 7 -5 6 -15 -2 -8 -7 -15 -9 -15 -4 0
5 -5 2 -10 -6 -10 -15 -11 -13 -14 27 0 9 7 17 17 19 24 3 31 10 23 22 -3 6
-15 8 -25 5 -10 -3 -22 0 -25 6 -4 6 -2 11 4 11 6 0 8 4 5 10 -3 5 0 7 9 4 21
-8 36 4 29 22 -3 8 -8 13 -10 10 -3 -3 -12 2 -20 10 -8 8 -20 12 -26 8 -7 -3
-3 2 7 10 11 9 26 17 33 17 7 1 19 2 25 3 7 0 14 9 16 19 3 14 -4 17 -38 17
-34 0 -39 2 -28 14 7 8 15 13 18 11 3 -2 16 3 30 11 l25 13 -25 2 c-14 1 -28
1 -32 0 -5 0 -8 4 -8 9 0 10 9 13 42 13 18 0 25 14 27 61 1 23 -2 27 -17 22
-10 -4 -7 2 8 14 14 11 30 20 35 20 13 0 36 36 28 44 -13 13 -49 4 -66 -17z
m-167 -237 c-4 -22 -5 -40 -2 -40 2 0 -2 -8 -9 -17 -12 -14 -12 -16 0 -8 11 6
12 5 5 -6 -11 -17 -13 -89 -2 -89 4 0 8 -5 8 -11 0 -5 -4 -7 -10 -4 -5 3 -10
1 -10 -4 0 -6 5 -11 10 -11 6 0 10 -10 10 -23 0 -13 5 -28 12 -35 9 -9 9 -12
-2 -12 -11 0 -12 -2 -3 -8 7 -4 14 -17 16 -28 6 -41 71 -141 125 -194 32 -30
56 -57 55 -60 -1 -3 8 -7 20 -7 12 -1 23 -7 25 -13 2 -5 12 -10 22 -10 10 0
22 -4 25 -10 3 -5 15 -10 25 -10 10 0 20 -4 22 -9 2 -5 23 -10 48 -12 25 -1
49 -5 55 -8 19 -10 160 -7 167 3 5 7 8 6 8 -3 0 -11 3 -11 15 -1 8 6 19 9 24
6 5 -4 12 -2 16 4 4 6 11 8 16 5 5 -4 9 -1 9 4 0 6 5 11 11 11 18 0 103 44
112 57 4 7 12 13 18 13 18 0 152 146 146 160 -1 3 7 19 19 35 29 43 44 86 40
117 -2 15 1 25 5 22 18 -11 15 124 -5 215 -5 23 -5 23 15 5 11 -10 17 -24 15
-31 -3 -7 -1 -15 4 -18 5 -3 7 -12 3 -20 -3 -8 0 -15 7 -15 8 0 10 -9 6 -27
-12 -47 -12 -78 -1 -85 6 -5 5 -8 -2 -8 -7 0 -13 -10 -13 -22 0 -21 1 -21 17
-6 9 10 17 31 18 47 1 17 3 33 6 35 3 3 4 30 3 60 -2 43 0 54 11 50 10 -4 13
-23 11 -68 -1 -34 -5 -67 -9 -72 -3 -6 -7 -36 -8 -67 -1 -31 -7 -57 -12 -57
-5 0 -7 -7 -3 -15 3 -8 1 -15 -4 -15 -6 0 -10 -4 -10 -8 0 -5 7 -9 15 -9 8 0
12 4 9 8 -3 5 3 16 13 26 10 10 18 25 17 33 0 8 4 21 9 28 5 6 7 12 3 12 -4 0
1 12 11 27 l17 26 13 -29 c16 -39 16 -61 -1 -67 -12 -5 -13 2 -9 30 5 27 3 34
-6 29 -7 -5 -10 -14 -7 -22 3 -7 1 -16 -5 -20 -7 -4 -4 -13 6 -24 18 -20 27
-57 15 -65 -4 -3 -6 -14 -3 -25 5 -19 6 -19 18 -3 8 10 16 15 19 12 3 -3 -2
-14 -12 -25 -10 -11 -26 -31 -36 -46 -18 -28 -133 -111 -153 -111 -12 0 -17
-10 -15 -28 0 -3 -13 -4 -29 -3 -19 1 -29 -2 -26 -9 6 -16 -12 -49 -22 -42 -5
2 -14 -2 -21 -10 -6 -7 -18 -11 -26 -8 -9 3 -14 0 -12 -7 2 -7 -7 -14 -20 -16
-34 -6 -10 16 52 47 32 15 43 25 32 27 -9 2 -25 0 -34 -4 -56 -23 -142 -51
-146 -46 -4 3 -6 -1 -6 -8 0 -7 -2 -11 -6 -8 -3 3 -22 1 -42 -4 -20 -5 -51
-11 -68 -12 -17 -1 -35 -6 -42 -9 -6 -4 -14 -2 -17 3 -5 7 -12 5 -22 -7 -8
-10 -12 -12 -8 -5 4 8 -1 12 -15 12 -13 0 -19 -4 -14 -11 4 -7 -1 -7 -16 1
-12 6 -31 10 -41 7 -10 -3 -21 -2 -23 2 -3 4 -25 6 -50 6 -25 -1 -46 3 -46 7
0 5 -5 6 -10 3 -6 -4 -17 -1 -25 5 -8 7 -15 9 -15 5 0 -4 -7 -2 -15 5 -8 7
-15 9 -15 4 0 -5 -6 -2 -13 6 -7 8 -16 15 -22 16 -20 2 -55 17 -55 23 0 3 -11
7 -25 7 -44 3 -155 64 -116 64 6 0 11 -4 11 -10 0 -5 7 -7 15 -4 8 4 15 1 15
-6 0 -6 5 -8 10 -5 6 3 10 3 10 -2 0 -4 14 -8 31 -9 20 -1 26 2 17 7 -10 7
-10 9 2 9 8 0 -10 10 -40 20 -30 11 -56 25 -58 30 -2 6 -10 10 -18 10 -8 0
-14 10 -14 25 0 22 -9 30 -32 26 -5 0 -8 4 -8 10 0 5 -4 8 -8 5 -5 -3 -18 4
-30 14 -12 11 -26 20 -32 20 -6 0 -13 7 -16 15 -4 8 -11 12 -17 8 -6 -3 -7 -1
-3 6 4 6 12 9 17 6 5 -4 9 1 9 9 0 9 -5 16 -11 16 -5 0 -8 4 -5 8 3 5 -1 20
-8 33 -17 34 -16 57 4 62 11 3 16 -3 18 -21 1 -14 6 -30 11 -36 9 -11 11 -17
11 -36 0 -5 9 -10 20 -10 25 0 25 9 3 26 -17 12 -17 14 -1 30 15 16 16 19 2
29 -11 8 -16 32 -18 85 -2 41 -1 69 2 61 3 -9 6 -10 11 -2 4 6 6 -17 5 -51 -1
-43 3 -72 15 -91 16 -28 16 -28 22 -5 3 13 0 33 -7 46 -13 25 -11 124 4 162 5
14 8 29 5 33 -4 7 14 37 22 37 1 0 -1 -18 -5 -40z m-44 -7 c-4 -16 -7 -36 -7
-45 0 -10 -7 -18 -15 -18 -8 0 -13 4 -10 8 3 5 6 25 8 45 1 24 7 37 16 37 11
0 13 -7 8 -27z m1223 -17 c9 -11 9 -16 0 -22 -8 -4 -9 -3 -5 4 4 7 2 12 -3 12
-6 0 -11 5 -11 10 0 14 5 13 19 -4z m-1296 -90 c1 -43 -2 -66 -9 -66 -7 0 -10
22 -9 63 3 78 4 82 11 75 3 -4 6 -36 7 -72z m1333 0 c-2 -39 -11 -38 -13 0 -1
19 2 32 6 30 4 -3 7 -16 7 -30z m-1542 -87 c-3 -5 0 -9 7 -9 7 0 9 -3 6 -6
-11 -11 -35 16 -32 34 2 9 4 22 5 27 1 6 5 -1 11 -13 5 -13 7 -28 3 -33z m66
31 c0 -5 -5 -10 -11 -10 -5 0 -7 5 -4 10 3 6 8 10 11 10 2 0 4 -4 4 -10z m70
-80 c0 -5 -4 -10 -10 -10 -5 0 -10 5 -10 10 0 6 5 10 10 10 6 0 10 -4 10 -10z
m21 -33 c9 -7 19 -23 24 -36 l7 -23 -21 21 c-12 12 -21 24 -20 27 0 4 -5 11
-13 15 -7 5 -8 9 -3 9 6 -1 17 -6 26 -13z m1435 -29 c4 -7 3 -8 -4 -4 -7 4
-12 1 -12 -8 0 -9 -4 -16 -10 -16 -12 0 -9 22 5 32 13 10 13 10 21 -4z m40
-42 c-11 -18 -27 -33 -33 -33 -18 0 -16 10 5 33 10 10 21 28 26 39 5 15 9 16
15 6 5 -8 1 -25 -13 -45z m-932 -232 c3 -8 2 -12 -4 -9 -6 3 -10 10 -10 16 0
14 7 11 14 -7z m-119 -75 c-4 -5 -12 -9 -18 -8 -9 0 -8 2 1 6 6 2 9 10 6 15
-4 7 -2 8 5 4 6 -4 9 -12 6 -17z m164 -376 c-1 -27 -17 -62 -20 -43 -6 51 -5
60 7 60 8 0 14 -8 13 -17z"/>
<path d="M3187 2569 c-20 -17 -37 -28 -37 -24 0 3 -9 1 -20 -5 -27 -14 -26
-40 1 -35 12 2 27 9 35 16 8 6 14 8 14 5 0 -4 10 2 22 14 12 11 25 20 29 20 8
0 6 26 -2 34 -3 3 -22 -8 -42 -25z"/>
<path d="M3085 2500 c-4 -6 -11 -8 -16 -5 -5 4 -9 -6 -9 -21 0 -21 3 -24 13
-15 8 6 17 8 20 4 4 -3 6 6 5 20 -3 30 -4 32 -13 17z"/>
<path d="M3015 2462 c-13 -9 -17 -32 -6 -32 21 0 41 13 41 26 0 15 -19 18 -35
6z"/>
<path d="M2960 2432 c0 -7 -3 -11 -7 -11 -22 4 -32 -3 -27 -16 8 -19 21 -19
41 1 12 11 13 18 4 27 -8 8 -11 8 -11 -1z"/>
<path d="M2255 2929 c-4 -6 -5 -12 -2 -15 2 -3 7 2 10 11 7 17 1 20 -8 4z"/>
<path d="M4234 2861 c-6 -6 -12 -7 -57 -9 -16 -1 -26 -6 -23 -10 3 -5 -8 -8
-24 -7 -17 1 -30 -2 -30 -7 0 -5 -4 -7 -9 -3 -5 3 -12 1 -16 -5 -4 -6 -10 -8
-14 -6 -7 4 -12 -35 -14 -96 0 -16 -3 -28 -7 -28 -3 0 -5 -20 -4 -45 1 -25 -2
-45 -7 -45 -5 0 -9 -15 -9 -33 0 -19 -3 -37 -7 -41 -4 -4 -8 -21 -8 -37 0 -17
-7 -34 -15 -39 -8 -6 -12 -10 -8 -10 4 0 1 -15 -7 -34 -8 -18 -11 -36 -8 -40
4 -3 2 -6 -4 -6 -6 0 -14 -10 -18 -22 -10 -31 -8 -27 -34 -79 -12 -25 -30 -55
-39 -65 -10 -10 -24 -34 -31 -51 -7 -18 -17 -33 -22 -33 -5 0 -9 -5 -9 -11 0
-10 -55 -86 -71 -99 -3 -3 -10 -15 -14 -28 -4 -13 -10 -21 -13 -18 -3 4 -18
-14 -34 -39 -15 -25 -33 -45 -38 -45 -7 0 -7 -7 0 -20 6 -11 8 -25 5 -30 -3
-6 -3 -10 2 -10 10 0 42 -66 48 -99 2 -12 9 -28 14 -35 5 -6 10 -15 12 -21 9
-38 12 -45 21 -45 5 0 7 -4 4 -8 -2 -4 11 -30 29 -57 19 -28 34 -56 35 -62 0
-7 5 -13 10 -13 6 0 10 -7 10 -15 0 -8 5 -15 10 -15 6 0 10 -7 10 -16 0 -22
41 -63 57 -57 18 7 16 23 -2 23 -8 0 -15 5 -15 11 0 6 9 9 20 6 24 -6 63 30
56 50 -3 6 0 10 7 8 10 -4 69 65 67 80 0 3 8 14 18 24 28 31 42 50 42 55 0 3
13 25 29 49 37 54 114 206 114 224 0 7 4 13 9 13 4 0 8 7 8 15 0 9 7 29 15 46
9 16 18 46 20 67 7 56 17 96 28 110 6 8 5 12 -4 12 -11 0 -11 2 1 10 8 5 12
10 8 10 -4 0 -3 13 2 29 6 21 4 35 -7 51 -14 20 -13 22 6 27 12 3 22 9 22 14
2 13 6 29 9 32 6 8 6 86 -2 105 -6 17 -5 21 4 16 8 -5 9 -2 5 10 -15 39 -19
66 -9 66 6 0 13 -6 15 -12 4 -8 6 -7 6 4 1 9 -10 25 -24 36 -16 13 -23 26 -19
36 5 12 10 14 19 6 9 -7 15 -7 19 -1 4 5 2 12 -3 16 -6 3 -7 13 -4 23 4 9 6
30 5 47 -1 16 -3 56 -5 88 -4 72 -21 92 -83 92 -25 1 -47 -2 -50 -4z m111
-361 c3 -5 1 -10 -4 -10 -6 0 -11 5 -11 10 0 6 2 10 4 10 3 0 8 -4 11 -10z"/>
<path d="M2275 2831 c-3 -5 2 -11 10 -15 8 -3 17 -1 20 3 3 5 -2 11 -10 15 -8
3 -17 1 -20 -3z"/>
<path d="M865 2786 c-10 -20 -23 -36 -30 -36 -14 0 -15 -17 -1 -39 5 -8 4 -16
-2 -20 -7 -4 -14 -38 -18 -76 -8 -86 -7 -110 7 -136 6 -12 8 -32 5 -45 -4 -13
-2 -33 4 -44 7 -13 7 -21 0 -25 -7 -4 -4 -18 9 -40 16 -27 17 -34 6 -39 -12
-4 -12 -9 0 -32 7 -14 11 -33 8 -41 -3 -8 -1 -31 5 -51 6 -20 16 -58 22 -84
11 -41 31 -62 60 -60 3 0 13 -13 22 -29 17 -28 17 -30 -2 -47 -22 -18 -27 -62
-8 -62 6 0 8 -3 5 -6 -4 -4 2 -19 12 -33 10 -14 31 -54 47 -88 16 -35 32 -63
36 -63 5 0 8 -5 8 -11 0 -17 114 -188 129 -194 8 -3 19 -1 24 4 12 12 41 -14
33 -28 -4 -5 0 -12 6 -14 9 -4 9 -6 -1 -6 -11 -1 -10 -5 5 -17 10 -8 12 -12 4
-8 -12 6 -12 4 1 -10 38 -41 66 -17 140 114 13 22 27 40 31 40 5 0 6 5 3 10
-3 6 -2 10 4 10 5 0 15 16 22 35 7 19 16 35 20 35 4 0 10 15 14 33 8 43 36
107 47 107 15 0 8 31 -14 63 -12 18 -45 64 -75 103 -29 39 -53 76 -53 82 0 7
-4 12 -10 12 -5 0 -10 5 -10 11 0 6 -11 20 -25 31 -14 11 -25 28 -25 38 0 10
-4 21 -9 24 -5 3 -23 36 -41 73 -18 38 -36 70 -40 73 -6 4 -20 36 -25 60 -1 3
-9 30 -18 60 -9 30 -19 73 -22 95 -4 22 -11 58 -17 80 -15 58 -18 74 -24 140
-3 33 -10 64 -15 69 -11 12 -133 16 -151 5 -11 -7 -10 -11 2 -19 8 -5 11 -10
7 -10 -4 0 -3 -10 4 -21 9 -17 8 -20 -3 -17 -7 3 -17 13 -23 24 -5 10 -19 20
-30 22 -11 2 -25 10 -32 18 -10 13 -14 10 -28 -20z m251 -1112 c29 -30 29 -37
7 -55 -15 -11 -16 -11 -6 1 10 11 7 17 -15 34 -29 22 -39 46 -21 46 7 0 22
-11 35 -26z"/>
<path d="M1312 2461 c-8 -4 -13 -11 -12 -15 3 -15 -25 -64 -34 -59 -5 3 -6 1
-2 -5 4 -7 14 -12 22 -12 8 0 14 -7 14 -15 0 -8 5 -15 12 -15 9 0 9 -3 0 -12
-7 -7 -12 -19 -12 -27 0 -15 14 -7 16 10 1 5 3 12 4 17 4 11 8 26 9 40 0 7 6
10 11 7 12 -8 13 37 1 51 -5 5 -11 17 -13 26 -2 12 -7 15 -16 9z"/>
<path d="M3857 2443 c-6 -16 -16 -31 -22 -35 -6 -5 -5 -8 3 -8 6 0 11 -3 10
-7 -1 -5 5 -21 14 -38 l17 -30 11 33 c7 17 16 32 21 32 4 0 0 13 -9 30 -9 16
-21 30 -25 30 -5 0 -5 5 -2 10 3 6 4 10 0 10 -3 0 -11 -12 -18 -27z"/>
<path d="M2731 1928 c-9 -14 -9 -23 -2 -29 6 -5 9 -6 6 -3 -2 4 0 15 6 26 14
27 6 32 -10 6z"/>
<path d="M4230 1783 c0 -12 -6 -28 -13 -35 -15 -15 -12 -35 11 -60 8 -10 12
-18 7 -18 -4 0 -2 -7 5 -15 16 -19 40 -61 82 -142 17 -35 35 -63 40 -63 4 0 8
-7 8 -15 0 -8 11 -31 25 -51 18 -27 22 -41 15 -48 -8 -8 -14 -6 -20 4 -5 8
-10 10 -10 4 0 -6 -19 -10 -47 -8 -27 1 -54 -3 -62 -10 -11 -8 -13 -8 -8 0 4
7 0 15 -9 18 -8 3 -12 2 -9 -4 3 -6 2 -10 -4 -10 -5 0 -13 5 -16 10 -4 6 -11
8 -16 4 -5 -3 -21 -7 -35 -10 -19 -3 -24 -1 -18 8 6 10 4 10 -7 2 -8 -6 -35
-10 -61 -8 -31 1 -48 -2 -48 -10 0 -8 -2 -8 -8 0 -10 15 -94 13 -110 -3 -10
-10 -10 -13 -1 -13 7 0 9 -3 6 -7 -4 -3 4 -15 16 -27 22 -20 30 -21 292 -18
149 1 276 3 283 4 18 2 9 50 -15 78 -10 11 -18 24 -18 28 -1 4 -6 17 -13 28
-6 12 -9 24 -7 28 3 3 2 4 -1 1 -4 -2 -23 28 -43 68 -20 39 -42 78 -48 85 -7
7 -13 19 -13 26 0 7 -8 21 -18 32 -21 22 -21 22 -28 52 -4 12 -10 22 -15 22
-5 0 -9 6 -9 13 0 6 -14 28 -30 47 -26 31 -29 33 -30 13z"/>
<path d="M918 1747 c-12 -23 -36 -69 -53 -102 -16 -33 -32 -62 -35 -65 -6 -6
-36 -61 -72 -130 -13 -25 -26 -47 -31 -48 -4 -2 -5 -7 -2 -12 3 -5 -2 -15 -10
-24 -9 -8 -16 -18 -16 -20 0 -16 -26 -66 -32 -61 -4 3 -5 2 -2 -1 2 -4 0 -16
-6 -27 -8 -14 -8 -18 0 -13 6 4 11 0 11 -10 0 -14 3 -15 12 -6 8 8 15 9 25 1
8 -7 13 -8 13 -1 0 6 13 7 35 2 24 -5 35 -4 35 4 0 6 5 4 10 -4 5 -8 10 -10
10 -5 0 11 110 12 128 1 7 -4 12 -3 12 1 0 5 9 9 20 9 11 0 20 -4 20 -8 0 -4
11 -3 25 2 15 6 26 6 30 -1 4 -6 13 -6 23 0 9 5 26 5 39 0 13 -5 23 -5 23 0 0
10 43 6 61 -5 8 -5 9 -3 4 6 -5 9 -2 10 14 5 20 -6 20 -5 9 20 -7 16 -14 21
-18 14 -5 -7 -12 -5 -21 8 -16 22 -47 43 -35 25 9 -15 1 -15 -26 -1 -11 6 -18
7 -15 2 3 -4 -21 -8 -53 -8 -33 0 -56 4 -53 9 4 5 0 6 -7 1 -20 -13 -60 -14
-60 -3 0 6 -7 5 -16 -3 -9 -7 -18 -9 -22 -3 -10 13 -35 17 -26 3 4 -8 0 -9
-15 -4 -14 4 -21 2 -21 -6 0 -8 -6 -5 -13 5 -10 14 -18 16 -33 9 -14 -7 -23
-6 -35 7 -15 16 -14 18 5 30 20 12 20 12 6 -5 -8 -11 -10 -16 -3 -12 12 8 93
143 93 157 0 5 3 10 8 12 4 2 17 21 28 43 60 112 89 161 97 166 11 8 -13 69
-26 69 -5 0 -5 5 -2 10 3 6 2 10 -4 10 -5 0 -20 -19 -33 -43z"/>
<path d="M3568 1763 c7 -3 16 -2 19 1 4 3 -2 6 -13 5 -11 0 -14 -3 -6 -6z"/>
<path d="M2365 1720 c-4 -6 1 -7 11 -3 12 4 15 3 10 -5 -4 -7 -3 -12 3 -12 17
0 21 18 5 24 -21 8 -22 8 -29 -4z"/>
<path d="M1536 1687 c3 -10 9 -15 12 -12 3 3 0 11 -7 18 -10 9 -11 8 -5 -6z"/>
<path d="M1830 1603 c-8 -4 -34 -26 -57 -50 -23 -23 -45 -43 -49 -43 -4 0 -21
-16 -40 -35 -18 -19 -31 -35 -29 -35 2 0 -10 -15 -26 -32 -17 -18 -40 -46 -52
-61 -12 -16 -35 -42 -50 -58 -16 -16 -25 -29 -21 -29 4 0 -7 -11 -26 -25 -19
-14 -28 -25 -21 -25 7 0 9 -4 6 -10 -3 -5 -3 -10 2 -10 4 0 22 -12 38 -26 17
-15 48 -38 70 -52 22 -14 50 -35 63 -46 12 -11 22 -16 22 -12 0 4 16 -5 35
-20 19 -14 35 -23 35 -20 0 4 12 -1 28 -12 26 -18 59 -34 74 -36 4 -1 15 -8
25 -16 10 -9 22 -16 26 -17 9 -1 61 -20 92 -34 26 -11 117 -39 141 -44 10 -2
19 -4 19 -5 0 -8 36 -6 42 2 4 7 -1 9 -15 6 -28 -8 -34 13 -9 35 31 27 40 21
34 -24 -4 -28 -2 -39 6 -36 7 2 11 12 11 21 -1 9 2 16 7 16 8 0 13 -15 10 -32
-3 -18 20 -6 29 15 l9 22 0 -24 c1 -24 1 -24 16 -5 14 18 14 18 15 -9 0 -26 2
-28 39 -25 22 1 38 5 35 9 -2 4 0 10 6 14 6 4 8 11 4 16 -3 5 0 17 7 25 7 9
14 34 15 57 3 63 7 59 13 -13 5 -58 9 -65 29 -68 12 -2 23 -8 23 -13 1 -5 3
-13 4 -19 1 -5 3 -15 4 -22 1 -8 4 -9 12 -1 14 14 18 64 7 87 -7 13 -7 16 1
12 7 -5 7 2 1 21 -5 15 -11 51 -13 78 -1 28 -6 56 -10 63 -5 7 -3 12 3 12 8 0
8 6 0 20 -6 12 -7 20 -1 20 6 0 6 11 1 30 -5 19 -5 30 1 30 6 0 8 4 5 8 -3 5
-7 48 -10 96 -2 48 -7 90 -10 93 -3 4 -1 12 5 20 9 9 8 13 0 13 -6 0 -11 7
-11 16 0 9 -6 14 -12 11 -7 -2 -12 -14 -12 -25 1 -12 -3 -22 -7 -22 -5 0 -9
11 -9 25 0 24 -9 30 -37 26 -7 -1 -13 2 -13 8 0 5 -8 8 -17 7 -10 -2 -37 3
-61 9 -23 7 -45 14 -47 14 -3 1 -6 1 -7 2 -2 0 -10 2 -18 4 -26 6 -175 59
-180 65 -8 8 -75 30 -93 30 -9 0 -17 5 -17 11 0 5 -4 8 -9 5 -4 -3 -17 1 -27
9 -20 15 -30 17 -54 8z m398 -228 c-3 -3 -9 2 -12 12 -6 14 -5 15 5 6 7 -7 10
-15 7 -18z m-562 -9 c-3 -12 -6 -25 -6 -29 0 -5 -4 -5 -10 -2 -16 10 -12 52 6
52 11 0 14 -7 10 -21z m241 -98 c-3 -8 -6 -5 -6 6 -1 11 2 17 5 13 3 -3 4 -12
1 -19z m486 -58 c3 -13 0 -20 -8 -20 -11 0 -13 14 -6 38 3 8 9 -1 14 -18z
m-169 -296 c3 -8 2 -12 -4 -9 -6 3 -10 10 -10 16 0 14 7 11 14 -7z"/>
<path d="M3235 1576 c-76 -37 -131 -60 -138 -58 -4 1 -10 -5 -13 -13 -4 -10
-14 -13 -29 -9 -13 3 -26 1 -30 -5 -3 -6 -10 -9 -14 -7 -4 3 -26 -2 -50 -10
-23 -8 -46 -12 -51 -9 -4 3 -10 1 -12 -4 -1 -5 -26 -11 -55 -13 -29 -2 -55 -7
-59 -11 -4 -4 -20 -7 -36 -7 -30 0 -28 6 -31 -97 -1 -18 -4 -33 -7 -33 -10 0
-10 -421 0 -457 6 -22 5 -33 -2 -33 -18 0 -3 -10 21 -15 11 -2 21 0 21 6 0 5
5 9 11 9 5 0 7 -5 4 -10 -4 -6 3 -8 17 -6 13 3 23 5 23 6 0 1 8 3 18 5 9 2 17
-2 17 -8 0 -9 2 -9 8 -1 4 7 23 14 42 17 38 6 77 16 100 24 8 4 18 5 23 5 4
-1 23 4 41 12 19 8 37 12 40 9 3 -3 12 0 21 7 8 7 15 10 15 7 0 -4 19 1 43 9
23 9 47 17 52 18 6 1 30 12 54 24 25 12 48 22 53 22 4 0 31 11 60 25 28 14 58
25 65 25 7 0 13 5 13 10 0 6 7 10 15 10 8 0 15 5 15 10 0 6 3 9 8 8 12 -4 84
43 125 81 20 19 37 32 37 28 0 -5 11 4 25 19 28 30 25 39 -29 97 -20 20 -36
40 -36 44 0 7 -161 164 -214 209 -14 12 -28 19 -31 16 -3 -3 -5 0 -5 7 0 7 -4
10 -10 6 -5 -3 -19 4 -30 15 -27 27 -68 34 -105 16z m-495 -736 c0 -5 -5 -10
-11 -10 -5 0 -7 5 -4 10 3 6 8 10 11 10 2 0 4 -4 4 -10z"/>
</g>
</svg>
